<svg width="66" height="66" viewBox="0 0 66 66" fill="none" xmlns="http://www.w3.org/2000/svg">
<path fill-rule="evenodd" clip-rule="evenodd" d="M12.6917 21.3793C6.43498 32.434 10.3245 46.4678 21.3793 52.7245C32.4341 58.9813 46.4678 55.0917 52.7246 44.037C58.9813 32.9822 55.0918 18.9484 44.037 12.6917C32.9822 6.43494 18.9485 10.3245 12.6917 21.3793ZM11.8214 20.8867C5.29266 32.4221 9.35133 47.066 20.8867 53.5948C32.4221 60.1236 47.0661 56.0649 53.5948 44.5295C60.1236 32.9941 56.065 18.3502 44.5296 11.8214C32.9942 5.29263 18.3502 9.3513 11.8214 20.8867Z" fill="url(#paint0_linear_12413_194)"/>
<path d="M27.012 38H42V24C42 22.897 41.103 22 40 22H27C25.794 22 24 22.799 24 25V39C24 41.201 25.794 42 27 42H42V40H27.012C26.55 39.988 26 39.806 26 39C26 38.899 26.009 38.809 26.024 38.727C26.136 38.151 26.608 38.01 27.012 38V38ZM29.648 27.642C30.0642 27.2311 30.6256 27.0006 31.2105 27.0006C31.7954 27.0006 32.3568 27.2311 32.773 27.642L32.997 27.861L33.22 27.642C33.6364 27.231 34.1979 27.0006 34.783 27.0006C35.3681 27.0006 35.9296 27.231 36.346 27.642C36.5526 27.8406 36.7169 28.079 36.8291 28.3426C36.9414 28.6063 36.9992 28.8899 36.9992 29.1765C36.9992 29.4631 36.9414 29.7467 36.8291 30.0104C36.7169 30.274 36.5526 30.5124 36.346 30.711L32.998 34L29.649 30.711C29.4423 30.5125 29.2777 30.2743 29.1653 30.0106C29.0529 29.747 28.9949 29.4633 28.9948 29.1767C28.9948 28.8901 29.0526 28.6064 29.1648 28.3427C29.277 28.079 29.4414 27.8406 29.648 27.642V27.642Z" fill="url(#paint1_linear_12413_194)"/>
<path d="M14 13C14 13.5523 13.5523 14 13 14C12.4477 14 12 13.5523 12 13C12 12.4477 12.4477 12 13 12C13.5523 12 14 12.4477 14 13Z" fill="#BBAC64"/>
<path d="M49 46C49 46.5523 48.5523 47 48 47C47.4477 47 47 46.5523 47 46C47 45.4477 47.4477 45 48 45C48.5523 45 49 45.4477 49 46Z" fill="#BBAC64"/>
<path d="M18 17.5C18 17.7761 17.7761 18 17.5 18C17.2239 18 17 17.7761 17 17.5C17 17.2239 17.2239 17 17.5 17C17.7761 17 18 17.2239 18 17.5Z" fill="#BBAC64"/>
<path d="M10 18.5C10 18.7761 9.77614 19 9.5 19C9.22386 19 9 18.7761 9 18.5C9 18.2239 9.22386 18 9.5 18C9.77614 18 10 18.2239 10 18.5Z" fill="#BBAC64"/>
<path d="M13 24.5C13 24.7761 12.7761 25 12.5 25C12.2239 25 12 24.7761 12 24.5C12 24.2239 12.2239 24 12.5 24C12.7761 24 13 24.2239 13 24.5Z" fill="#BBAC64"/>
<path d="M44 50.5C44 50.7761 43.7761 51 43.5 51C43.2239 51 43 50.7761 43 50.5C43 50.2239 43.2239 50 43.5 50C43.7761 50 44 50.2239 44 50.5Z" fill="#BBAC64"/>
<path d="M51 52.5C51 52.7761 50.7761 53 50.5 53C50.2239 53 50 52.7761 50 52.5C50 52.2239 50.2239 52 50.5 52C50.7761 52 51 52.2239 51 52.5Z" fill="#BBAC64"/>
<defs>
<linearGradient id="paint0_linear_12413_194" x1="53.5948" y1="44.5295" x2="11.8214" y2="20.8867" gradientUnits="userSpaceOnUse">
<stop stop-color="#B8A74D"/>
<stop offset="1" stop-color="#2C2E59"/>
</linearGradient>
<linearGradient id="paint1_linear_12413_194" x1="33" y1="22" x2="33" y2="42" gradientUnits="userSpaceOnUse">
<stop stop-color="#B0A04E"/>
<stop offset="1" stop-color="#CCC18A"/>
</linearGradient>
</defs>
</svg>
