<svg width="22" height="22" viewBox="0 0 22 22" fill="none" xmlns="http://www.w3.org/2000/svg">
<path fill-rule="evenodd" clip-rule="evenodd" d="M10 3.5C6.41015 3.5 3.5 6.41015 3.5 10C3.5 13.5899 6.41015 16.5 10 16.5C13.5899 16.5 16.5 13.5899 16.5 10C16.5 6.41015 13.5899 3.5 10 3.5ZM0.5 10C0.5 4.75329 4.75329 0.5 10 0.5C15.2467 0.5 19.5 4.75329 19.5 10C19.5 15.2467 15.2467 19.5 10 19.5C4.75329 19.5 0.5 15.2467 0.5 10Z" fill="#9A9CCB"/>
<path fill-rule="evenodd" clip-rule="evenodd" d="M14.5894 14.5892C15.1752 14.0035 16.1249 14.0035 16.7107 14.5892L21.0607 18.9392C21.6465 19.525 21.6465 20.4748 21.0607 21.0606C20.4749 21.6463 19.5252 21.6463 18.9394 21.0606L14.5894 16.7106C14.0036 16.1248 14.0036 15.175 14.5894 14.5892Z" fill="#9A9CCB"/>
</svg>
