<svg width="20" height="10" viewBox="0 0 20 10" fill="none" xmlns="http://www.w3.org/2000/svg">
<path fill-rule="evenodd" clip-rule="evenodd" d="M0.25 5C0.25 4.58579 0.585786 4.25 1 4.25H19C19.4142 4.25 19.75 4.58579 19.75 5C19.75 5.41421 19.4142 5.75 19 5.75H1C0.585786 5.75 0.25 5.41421 0.25 5Z" fill="#D1D1D7"/>
<path fill-rule="evenodd" clip-rule="evenodd" d="M14.4697 0.46967C14.7626 0.176777 15.2374 0.176777 15.5303 0.46967L19.5303 4.46967C19.8232 4.76256 19.8232 5.23744 19.5303 5.53033L15.5303 9.53033C15.2374 9.82322 14.7626 9.82322 14.4697 9.53033C14.1768 9.23744 14.1768 8.76256 14.4697 8.46967L17.9393 5L14.4697 1.53033C14.1768 1.23744 14.1768 0.762563 14.4697 0.46967Z" fill="#D1D1D7"/>
</svg>
