<svg width="9" height="13" viewBox="0 0 9 13" fill="none" xmlns="http://www.w3.org/2000/svg">
<path d="M4.24574 12.9395V0.212219H5.06109V12.9395H4.24574ZM6.40839 4.41321C6.36861 4.01217 6.19792 3.70062 5.89631 3.47855C5.5947 3.25649 5.18538 3.14546 4.66833 3.14546C4.317 3.14546 4.02037 3.19517 3.77841 3.29461C3.53646 3.39072 3.35086 3.52496 3.2216 3.6973C3.09565 3.86965 3.03268 4.0652 3.03268 4.28395C3.02605 4.46624 3.06416 4.62534 3.14702 4.76123C3.2332 4.89712 3.35086 5.01478 3.50001 5.11421C3.64915 5.21033 3.8215 5.29484 4.01705 5.36776C4.2126 5.43736 4.42141 5.49702 4.64347 5.54674L5.55824 5.76549C6.00237 5.86492 6.41004 5.99749 6.78126 6.16321C7.15247 6.32893 7.47396 6.53277 7.74574 6.77472C8.01752 7.01667 8.22799 7.30171 8.37714 7.62983C8.5296 7.95796 8.60749 8.33414 8.6108 8.75838C8.60749 9.38149 8.4484 9.92174 8.13353 10.3791C7.82198 10.8332 7.37122 11.1862 6.78126 11.4381C6.19461 11.6867 5.48699 11.8109 4.65839 11.8109C3.83642 11.8109 3.12051 11.685 2.51066 11.4331C1.90412 11.1812 1.43017 10.8083 1.08878 10.3145C0.750716 9.81733 0.573396 9.20251 0.556824 8.47003H2.63992C2.66312 8.81141 2.7609 9.09645 2.93324 9.32515C3.10891 9.55052 3.34257 9.72122 3.63424 9.83722C3.92922 9.94991 4.26232 10.0063 4.63353 10.0063C4.99811 10.0063 5.31464 9.95322 5.5831 9.84716C5.85488 9.7411 6.06535 9.59361 6.21449 9.40469C6.36364 9.21577 6.43822 8.99868 6.43822 8.75341C6.43822 8.52472 6.37027 8.33248 6.23438 8.17671C6.10181 8.02093 5.90626 7.88836 5.64773 7.77898C5.39252 7.66961 5.07931 7.57017 4.7081 7.48069L3.59944 7.20228C2.74101 6.99347 2.06322 6.667 1.56606 6.22287C1.0689 5.77874 0.821975 5.1805 0.82529 4.42813C0.821975 3.81165 0.986038 3.27306 1.31748 2.81236C1.65223 2.35166 2.11127 1.99205 2.69461 1.73353C3.27794 1.475 3.94082 1.34574 4.68324 1.34574C5.43893 1.34574 6.09849 1.475 6.66194 1.73353C7.2287 1.99205 7.66951 2.35166 7.98438 2.81236C8.29925 3.27306 8.46165 3.80668 8.4716 4.41321H6.40839Z" fill="#F5453D"/>
</svg>
