<svg width="56" height="56" viewBox="0 0 56 56" fill="none" xmlns="http://www.w3.org/2000/svg">
<path fill-rule="evenodd" clip-rule="evenodd" d="M48 1H8C4.13401 1 1 4.13401 1 8V48C1 51.866 4.13401 55 8 55H48C51.866 55 55 51.866 55 48V8C55 4.13401 51.866 1 48 1ZM8 0C3.58172 0 0 3.58172 0 8V48C0 52.4183 3.58172 56 8 56H48C52.4183 56 56 52.4183 56 48V8C56 3.58172 52.4183 0 48 0H8Z" fill="url(#paint0_linear_12414_239)"/>
<path d="M40.3409 28.7004C42.7414 26.663 43.9417 25.6443 43.6238 24.6839C43.3059 23.7235 41.7349 23.6221 38.5928 23.4194L34.8135 23.1756C33.8941 23.1162 33.4344 23.0866 33.083 22.8315C32.7317 22.5764 32.5611 22.1485 32.2199 21.2927L30.7727 17.6621C29.5927 14.7022 29.0028 13.2222 27.9859 13.2222C26.9691 13.2222 26.3791 14.7022 25.1992 17.6621L23.7518 21.293C23.4106 22.1487 23.2401 22.5765 22.8888 22.8316C22.5375 23.0866 22.0779 23.1164 21.1586 23.1758L17.3909 23.4194C14.2548 23.6222 12.6868 23.7236 12.3685 24.683C12.0503 25.6424 13.2469 26.6608 15.6401 28.6977L18.5877 31.2065C19.2806 31.7963 19.6271 32.0911 19.7572 32.5003C19.8874 32.9095 19.7751 33.3504 19.5503 34.2321L18.5854 38.0174C17.7966 41.112 17.4022 42.6592 18.2258 43.2572C19.0494 43.8553 20.3986 43.0013 23.0969 41.2933L26.3815 39.2144C27.1612 38.7208 27.5511 38.474 27.9859 38.474C28.4208 38.474 28.8106 38.7208 29.5904 39.2144L32.8749 41.2933C35.5732 43.0013 36.9224 43.8553 37.746 43.2572C38.5696 42.6592 38.1752 41.1119 37.3864 38.0174L36.4222 34.2349C36.1971 33.3519 36.0846 32.9104 36.2152 32.5007C36.3459 32.0911 36.6932 31.7963 37.388 31.2066L40.3409 28.7004Z" fill="#3BF5BD"/>
<path d="M37.388 31.2066C36.6932 31.7963 36.3458 32.0911 36.2152 32.5007C36.0846 32.9103 36.1971 33.3519 36.4222 34.2349L37.3864 38.0174C38.1752 41.1119 38.5696 42.6592 37.746 43.2572C36.9224 43.8552 35.5732 43.0013 32.8748 41.2933L29.3814 39.0821C28.699 38.6502 28.3578 38.4342 28.1719 38.0964C27.9859 37.7586 27.9859 37.3548 27.9859 36.5472V22.5591C27.9859 19.4666 27.9859 17.9203 28.3583 17.4958C28.8108 16.98 29.5557 16.837 30.167 17.1486C30.6702 17.405 31.2427 18.8414 32.3879 21.714V21.714C32.5647 22.1575 32.6531 22.3793 32.7915 22.5528C32.9606 22.765 33.1842 22.9272 33.4383 23.0224C33.6462 23.1002 33.8844 23.1156 34.3608 23.1463L38.5927 23.4194C41.7348 23.6221 43.3059 23.7235 43.6238 24.6839C43.9417 25.6442 42.7414 26.663 40.3408 28.7004L37.388 31.2066Z" fill="#0CF3AD"/>
<defs>
<linearGradient id="paint0_linear_12414_239" x1="56" y1="56" x2="-11" y2="4.5" gradientUnits="userSpaceOnUse">
<stop stop-color="#3BF5BD"/>
<stop offset="1" stop-color="#2C2E59"/>
</linearGradient>
</defs>
</svg>
