<svg width="115" height="25" viewBox="0 0 115 25" fill="none" xmlns="http://www.w3.org/2000/svg">
<path d="M106.852 24.0194C106.852 25.6708 104.306 22.3681 102.609 22.3681C100.912 22.3681 97.5185 25.6708 97.5185 24.0194C100.912 20.7168 100.948 14.1115 102.27 14.1115C103.592 14.1115 104.306 20.7168 106.852 24.0194Z" fill="#F5443B"/>
<path d="M18.4507 17.2427C18.4507 18.4125 18.1769 19.4205 17.6293 20.2667C17.1067 21.0881 16.2356 21.8472 15.016 22.5441C14.1947 23.0418 13.2364 23.4152 12.1413 23.6641C11.0462 23.9129 9.93867 24.0374 8.81867 24.0374C7.67378 24.0374 6.25511 23.6641 4.56267 22.9174C3.34311 22.3201 2.37244 21.6107 1.65067 20.7894C0.953778 19.9681 0.605333 19.0721 0.605333 18.1014C0.605333 17.4294 0.754667 16.9441 1.05333 16.6454C1.352 16.3218 1.83733 16.1601 2.50933 16.1601C2.85778 16.1601 3.21867 16.3094 3.592 16.6081C3.96533 16.8818 4.18933 17.1556 4.264 17.4294C4.61244 18.4498 5.22222 19.2338 6.09333 19.7814C6.96445 20.3041 8.04711 20.5654 9.34133 20.5654C10.8347 20.5654 12.0791 20.2916 13.0747 19.7441C14.0951 19.1965 14.6053 18.4623 14.6053 17.5414C14.6053 16.6454 14.0578 15.8489 12.9627 15.1521C11.8676 14.4552 10.7476 13.9698 9.60267 13.6961C7.96 13.2481 6.504 12.7129 5.23467 12.0907C3.91556 11.4436 2.93244 10.6472 2.28533 9.70139C1.63822 8.75561 1.31467 7.76005 1.31467 6.71472C1.31467 5.74405 1.65067 4.76094 2.32267 3.76538C2.99467 2.74494 3.79111 2.01072 4.712 1.56272C5.20978 1.31383 6.056 1.0525 7.25067 0.778717C8.47022 0.480051 9.35378 0.330719 9.90133 0.330719C10.6231 0.330719 11.4196 0.417829 12.2907 0.592051C13.1618 0.766274 13.8711 1.01516 14.4187 1.33872C15.5138 1.96094 16.3227 2.52094 16.8453 3.01872C17.368 3.51649 17.6293 4.13872 17.6293 4.88538C17.6293 5.33338 17.4551 5.73161 17.1067 6.08005C16.7831 6.4285 16.2107 6.60272 15.3893 6.60272C15.1902 6.60272 14.9911 6.51561 14.792 6.34138C14.5929 6.16716 14.344 5.90583 14.0453 5.55738C13.6471 5.03472 13.2613 4.68627 12.888 4.51205C12.5147 4.38761 11.9671 4.25072 11.2453 4.10138C10.5484 3.95205 9.92622 3.87738 9.37867 3.87738C8.78133 3.87738 8.15911 4.00183 7.512 4.25072C6.86489 4.49961 6.31733 4.8605 5.86933 5.33339C5.44622 5.78138 5.23467 6.30405 5.23467 6.90138C5.23467 7.39916 5.45867 7.83472 5.90667 8.20805C6.37956 8.5565 6.93956 8.84272 7.58667 9.06672C8.33333 9.36539 9.14222 9.62672 10.0133 9.85072C11.1582 10.1992 12.0916 10.5227 12.8133 10.8214C13.56 11.0952 14.2818 11.4436 14.9787 11.8667C16.1982 12.5885 17.0818 13.3352 17.6293 14.1067C18.1769 14.8534 18.4507 15.8987 18.4507 17.2427Z" fill="url(#paint0_linear_12460_89)"/>
<path d="M23.8462 0.0320512C24.7173 0.106717 25.4764 0.343162 26.1235 0.741385C26.7707 1.11472 27.0942 1.68716 27.0942 2.45872C27.0942 3.03116 26.8204 3.49161 26.2729 3.84005C25.7502 4.16361 25.1155 4.32538 24.3689 4.32538C23.6471 4.32538 23.1493 4.13872 22.8755 3.76538C22.6018 3.39205 22.4649 3.00627 22.4649 2.60805C22.4649 1.86138 22.5395 1.23916 22.6889 0.741385C22.8631 0.243607 23.2489 0.0071626 23.8462 0.0320512ZM26.8329 16.5707V17.6534C26.8329 18.6241 26.8578 19.5449 26.9075 20.4161C26.9822 21.2623 27.0693 22.1209 27.1689 22.9921C27.144 23.2409 26.9573 23.5023 26.6089 23.7761C26.2604 24.0249 25.9493 24.1494 25.6755 24.1494C25.2027 24.1494 24.7173 24.0623 24.2195 23.8881C23.7467 23.6889 23.4604 23.4525 23.3609 23.1787C23.2115 22.3823 23.1369 21.6729 23.1369 21.0507C23.1369 19.0098 23.0747 16.7201 22.9502 14.1814C22.8507 11.9414 22.8009 10.3734 22.8009 9.47738C22.8009 9.02939 23.0249 8.64361 23.4729 8.32005C23.9209 7.9965 24.3938 7.83472 24.8915 7.83472C25.6133 7.83472 26.1111 7.9965 26.3849 8.32005C26.6835 8.64361 26.8329 9.15383 26.8329 9.85072V16.5707Z" fill="url(#paint1_linear_12460_89)"/>
<path d="M48.5183 21.1254C48.6427 21.1752 48.8419 21.2374 49.1156 21.3121C49.3894 21.3867 49.5885 21.4614 49.713 21.5361C49.8374 21.6107 49.8996 21.7227 49.8996 21.8721C49.9245 22.4694 49.7005 22.9672 49.2276 23.3654C48.7796 23.7387 48.2445 23.9254 47.6223 23.9254C46.6516 23.9254 45.8925 23.6641 45.345 23.1414C44.7974 22.6187 44.3992 21.8223 44.1503 20.7521C44.0507 20.3289 44.001 19.7441 44.001 18.9974C44.001 18.5743 44.0259 17.8898 44.0756 16.9441C44.1254 15.9485 44.1503 15.1521 44.1503 14.5547C44.1503 13.6836 43.9014 12.9245 43.4036 12.2774C42.9307 11.6054 42.2587 11.2694 41.3876 11.2694C40.865 11.2694 40.3174 11.4312 39.745 11.7547C39.1725 12.0534 38.7743 12.4267 38.5503 12.8747C38.177 13.5965 37.9156 14.3805 37.7663 15.2267C37.4925 16.7201 37.3556 18.2756 37.3556 19.8934C37.3556 20.6649 37.3681 21.2623 37.393 21.6854C37.393 21.7849 37.393 21.9841 37.393 22.2827C37.4178 22.5565 37.393 22.8178 37.3183 23.0667C37.2685 23.2907 37.169 23.5023 37.0196 23.7014C36.8952 23.8258 36.6961 23.9254 36.4223 24.0001C36.1734 24.0996 35.937 24.1494 35.713 24.1494C35.3645 24.1494 34.929 24.0001 34.4063 23.7014C33.8836 23.4027 33.585 23.0667 33.5103 22.6934L33.473 22.0587C33.473 21.8347 33.4978 21.5734 33.5476 21.2747C33.8463 19.5325 33.9956 18.0143 33.9956 16.7201C33.9956 16.1476 33.9832 15.6996 33.9583 15.3761L33.921 13.6214C33.921 13.0241 33.7716 12.4516 33.473 11.9041C33.1743 11.3316 32.8258 11.0454 32.4276 11.0454C32.3032 11.0454 32.129 11.0952 31.905 11.1947C31.681 11.2694 31.4943 11.3067 31.345 11.3067C31.0961 11.3067 30.8223 11.1823 30.5236 10.9334C30.2498 10.6845 30.113 10.4232 30.113 10.1494C30.113 9.62672 30.2872 9.20361 30.6356 8.88005C31.009 8.58138 31.3698 8.34494 31.7183 8.17072C32.0916 7.9965 32.5147 7.90939 32.9876 7.90939C33.3858 7.90939 33.7094 7.94672 33.9583 8.02139C34.2072 8.09605 34.5432 8.25783 34.9663 8.50672C35.1903 8.63116 35.4516 8.90494 35.7503 9.32805C36.049 9.75116 36.2978 10.3485 36.497 11.1201C37.1441 9.92539 37.9405 9.09161 38.8863 8.61872C39.857 8.12094 41.089 7.87205 42.5823 7.87205C43.1547 7.87205 43.7645 8.05872 44.4116 8.43205C45.0836 8.80538 45.6561 9.24094 46.129 9.73872C46.577 10.2863 46.9503 10.9707 47.249 11.7921C47.5476 12.5885 47.697 13.3103 47.697 13.9574C47.697 14.3307 47.6721 14.9405 47.6223 15.7867C47.5476 16.4587 47.5103 17.1681 47.5103 17.9147C47.5103 19.6569 47.8463 20.7272 48.5183 21.1254Z" fill="url(#paint2_linear_12460_89)"/>
<path d="M66.7903 24.1494C65.9441 24.1494 65.297 24.0249 64.849 23.7761C64.401 23.5023 63.9157 23.0045 63.393 22.2827C62.7459 22.8552 61.7752 23.3156 60.481 23.6641C59.2117 24.0125 58.1166 24.1867 57.1957 24.1867C55.6774 24.1867 54.4454 23.7761 53.4997 22.9547C52.5788 22.1085 52.1183 20.8765 52.1183 19.2587C52.1183 18.5618 52.305 17.9272 52.6783 17.3547C53.0766 16.7574 53.5868 16.2347 54.209 15.7867C54.9059 15.3138 55.7272 14.9405 56.673 14.6667C57.6437 14.3929 58.5272 14.2561 59.3237 14.2561C60.6677 14.2561 61.8623 14.3805 62.9077 14.6294V14.5921C62.9077 13.2481 62.5717 12.3272 61.8997 11.8294C61.2526 11.3067 60.2072 11.0454 58.7637 11.0454C57.8428 11.0454 57.0463 11.4561 56.3743 12.2774C56.1254 12.6009 55.6028 12.7627 54.8063 12.7627C54.4081 12.7627 54.1094 12.6009 53.9103 12.2774C53.7361 11.9289 53.649 11.5805 53.649 11.2321C53.649 10.5103 53.9477 9.88805 54.545 9.36539C55.1672 8.84272 55.9139 8.45694 56.785 8.20805C57.6561 7.93427 58.465 7.79738 59.2117 7.79738C59.9334 7.79738 60.7921 7.94672 61.7877 8.24538C62.7832 8.54405 63.5921 8.94227 64.2143 9.44005C64.961 10.0872 65.5335 10.8463 65.9317 11.7174C66.3548 12.5636 66.5663 13.4969 66.5663 14.5174C66.5663 14.8409 66.5414 15.3263 66.4917 15.9734C66.4419 16.7201 66.417 17.3298 66.417 17.8027C66.417 18.0267 66.3921 18.3129 66.3423 18.6614C66.2926 19.1094 66.2677 19.4827 66.2677 19.7814C66.2677 20.1049 66.3672 20.4161 66.5663 20.7147C66.7655 21.0134 67.0392 21.2623 67.3877 21.4614C67.7112 21.6356 67.9228 21.8223 68.0223 22.0214C68.1219 22.2205 68.1717 22.4445 68.1717 22.6934C68.1717 22.9423 68.0099 23.2534 67.6863 23.6267C67.3877 23.9752 67.089 24.1494 66.7903 24.1494ZM59.3237 17.0187C58.353 17.0187 57.4943 17.2054 56.7477 17.5787C56.001 17.9521 55.6277 18.6116 55.6277 19.5574C55.6277 20.0303 55.7894 20.4285 56.113 20.7521C56.4614 21.0756 56.8348 21.2374 57.233 21.2374C58.3032 21.2374 59.1992 21.1254 59.921 20.9014C60.6428 20.6774 61.5139 20.2667 62.5343 19.6694C62.6588 19.2712 62.7334 18.7112 62.7583 17.9894C62.7583 17.7156 62.7708 17.5041 62.7957 17.3547C61.4517 17.1307 60.2943 17.0187 59.3237 17.0187Z" fill="url(#paint3_linear_12460_89)"/>
<path d="M70.568 11.4187C70.3689 11.4187 70.1947 11.3441 70.0453 11.1947C69.896 11.0205 69.8213 10.8214 69.8213 10.5974C69.8213 9.87561 70.0578 9.32805 70.5307 8.95472C71.0036 8.5565 71.5885 8.35738 72.2853 8.35738C73.256 8.35738 74.0898 8.61872 74.7867 9.14138C75.5085 9.63916 75.8693 10.3609 75.8693 11.3067C75.8693 11.5556 75.8196 12.5014 75.72 14.1441C75.6205 16.0356 75.5707 17.2925 75.5707 17.9147C75.5707 18.7858 75.7325 19.4952 76.056 20.0427C76.4045 20.5654 76.9396 20.8267 77.6613 20.8267C79.0551 20.8267 80.1253 20.0552 80.872 18.5121C81.6436 16.9441 82.1538 15.0276 82.4027 12.7627C82.5022 11.7672 82.6516 10.7218 82.8507 9.62672C82.9502 9.02939 83.0871 8.59383 83.2613 8.32005C83.4356 8.04627 83.7716 7.90939 84.2693 7.90939C84.5929 7.90939 84.9662 7.98405 85.3893 8.13338C85.8373 8.28272 86.1236 8.48183 86.248 8.73072C86.3973 9.10405 86.472 9.51472 86.472 9.96272C86.472 10.5849 86.3849 11.3938 86.2107 12.3894C86.0116 13.3849 85.8747 14.4676 85.8 15.6374C85.7502 16.6827 85.912 17.7778 86.2853 18.9227C86.6587 20.0676 87.1938 20.8143 87.8907 21.1627C88.6871 21.5609 89.0853 21.9218 89.0853 22.2454C89.0853 22.7681 88.8987 23.1787 88.5253 23.4774C88.152 23.7761 87.7911 23.9254 87.4427 23.9254C86.5218 23.9254 85.688 23.5894 84.9413 22.9174C84.2196 22.2454 83.6969 21.4116 83.3733 20.4161C82.8507 21.2125 82.3405 21.8721 81.8427 22.3947C81.3698 22.8925 80.76 23.3156 80.0133 23.6641C79.2667 23.9876 78.3458 24.1494 77.2507 24.1494C75.9565 24.1494 74.7742 23.6889 73.704 22.7681C72.6587 21.8472 72.136 20.2667 72.136 18.0267C72.136 17.4045 72.1485 16.7449 72.1733 16.0481C72.2231 15.3512 72.248 14.8534 72.248 14.5547C72.3227 13.6587 72.36 12.8374 72.36 12.0907C72.36 11.8667 72.2729 11.6801 72.0987 11.5307C71.9493 11.3814 71.7751 11.3067 71.576 11.3067C71.4267 11.3067 71.2525 11.3316 71.0533 11.3814C70.8791 11.4063 70.7173 11.4187 70.568 11.4187Z" fill="url(#paint4_linear_12460_89)"/>
<path d="M108.971 15.1147C109.121 14.5672 109.283 13.8205 109.457 12.8747C109.706 11.7547 109.905 10.9085 110.054 10.3361C110.203 9.76361 110.403 9.27827 110.651 8.88005C110.925 8.43205 111.162 8.13338 111.361 7.98405C111.585 7.83472 111.821 7.76005 112.07 7.76005C113.364 7.76005 114.011 8.25783 114.011 9.25339C114.011 9.75116 113.812 10.6845 113.414 12.0534C112.095 16.0356 111.149 19.1218 110.577 21.3121C110.328 22.2329 109.955 22.9423 109.457 23.4401C108.959 23.9129 108.287 24.1494 107.441 24.1494C107.018 24.1494 106.582 23.9503 106.134 23.5521C105.711 23.1289 105.363 22.6187 105.089 22.0214L104.678 21.0134C103.981 19.2463 103.459 17.8898 103.11 16.9441C102.787 15.9734 102.575 15.1023 102.475 14.3307L102.139 15.5254C101.542 17.6658 100.92 19.6569 100.273 21.4987C99.9492 22.4445 99.551 23.1289 99.0781 23.5521C98.6052 23.9503 97.9955 24.1494 97.2488 24.1494C96.8008 24.1494 96.4026 24.0498 96.0541 23.8507C95.7306 23.6516 95.4195 23.3156 95.1208 22.8427C94.7226 22.1956 94.3368 21.3245 93.9635 20.2294C93.615 19.1343 93.1048 17.4294 92.4328 15.1147C92.1092 14.1192 91.8106 13.0738 91.5368 11.9787C91.263 10.8587 91.1261 10.0747 91.1261 9.62672C91.1261 9.10405 91.263 8.69338 91.5368 8.39472C91.8106 8.09605 92.2088 7.94672 92.7315 7.94672C93.4035 7.94672 93.8764 8.08361 94.1501 8.35738C94.4239 8.60627 94.6728 8.99205 94.8968 9.51472C95.0212 10.4107 95.295 11.6801 95.7181 13.3227L96.5395 16.8321C96.5892 17.1058 96.7386 17.6783 96.9875 18.5494L97.2861 19.6321C97.8337 18.4623 98.2941 17.3423 98.6675 16.2721C99.0408 15.2018 99.4515 13.8827 99.8995 12.3147C99.9244 12.2152 100.173 11.3565 100.646 9.73872C100.97 9.21605 101.256 8.83027 101.505 8.58138C101.754 8.30761 102.003 8.17072 102.251 8.17072C102.749 8.17072 103.172 8.3325 103.521 8.65605C103.894 8.95472 104.168 9.32805 104.342 9.77605C104.641 10.7467 104.902 11.6303 105.126 12.4267C105.226 12.7503 105.45 13.5343 105.798 14.7787C106.171 15.9983 106.507 17.0312 106.806 17.8774C107.105 18.7236 107.354 19.3209 107.553 19.6694L108.971 15.1147Z" fill="url(#paint5_linear_12460_89)"/>
<path d="M28.0371 2.70368C28.0371 4.4219 26.6443 5.29627 24.926 5.29627C23.2078 5.29627 22.3334 4.4219 22.3334 2.70368C22.3334 0.985457 23.2078 0.111084 24.926 0.111084C26.6443 0.111084 28.0371 0.985457 28.0371 2.70368Z" fill="#F5443B"/>
<defs>
<linearGradient id="paint0_linear_12460_89" x1="57.5926" y1="-17" x2="57.5926" y2="39" gradientUnits="userSpaceOnUse">
<stop stop-color="#C7CAFE"/>
<stop offset="1" stop-color="#3D408F"/>
</linearGradient>
<linearGradient id="paint1_linear_12460_89" x1="57.5926" y1="-17" x2="57.5926" y2="39" gradientUnits="userSpaceOnUse">
<stop stop-color="#C7CAFE"/>
<stop offset="1" stop-color="#3D408F"/>
</linearGradient>
<linearGradient id="paint2_linear_12460_89" x1="57.5926" y1="-17" x2="57.5926" y2="39" gradientUnits="userSpaceOnUse">
<stop stop-color="#C7CAFE"/>
<stop offset="1" stop-color="#3D408F"/>
</linearGradient>
<linearGradient id="paint3_linear_12460_89" x1="57.5926" y1="-17" x2="57.5926" y2="39" gradientUnits="userSpaceOnUse">
<stop stop-color="#C7CAFE"/>
<stop offset="1" stop-color="#3D408F"/>
</linearGradient>
<linearGradient id="paint4_linear_12460_89" x1="57.5926" y1="-17" x2="57.5926" y2="39" gradientUnits="userSpaceOnUse">
<stop stop-color="#C7CAFE"/>
<stop offset="1" stop-color="#3D408F"/>
</linearGradient>
<linearGradient id="paint5_linear_12460_89" x1="57.5926" y1="-17" x2="57.5926" y2="39" gradientUnits="userSpaceOnUse">
<stop stop-color="#C7CAFE"/>
<stop offset="1" stop-color="#3D408F"/>
</linearGradient>
</defs>
</svg>
