<svg width="33" height="22" viewBox="0 0 33 22" fill="none" xmlns="http://www.w3.org/2000/svg">
<path fill-rule="evenodd" clip-rule="evenodd" d="M11 2C6.02944 2 2 6.02944 2 11C2 15.9706 6.02944 20 11 20C15.9706 20 20 15.9706 20 11C20 6.02944 15.9706 2 11 2ZM0 11C0 4.92487 4.92487 0 11 0C17.0751 0 22 4.92487 22 11C22 17.0751 17.0751 22 11 22C4.92487 22 0 17.0751 0 11Z" fill="#D1D1D7"/>
<path fill-rule="evenodd" clip-rule="evenodd" d="M0 11C0 10.4477 0.447715 10 1 10H21C21.5523 10 22 10.4477 22 11C22 11.5523 21.5523 12 21 12H1C0.447715 12 0 11.5523 0 11Z" fill="#D1D1D7"/>
<path fill-rule="evenodd" clip-rule="evenodd" d="M8.00023 11.0001C8.06877 14.0749 9.12625 17.0353 11 19.4493C12.8737 17.0353 13.9312 14.0749 13.9998 11.0001C13.9312 7.92527 12.8737 4.96495 11 2.5509C9.12625 4.96495 8.06877 7.92527 8.00023 11.0001ZM11 1.00011L10.2617 0.325684C7.59689 3.24301 6.08251 7.02896 6.00022 10.9793C5.99993 10.9932 5.99993 11.0071 6.00022 11.0209C6.08251 14.9713 7.59689 18.7572 10.2617 21.6745C10.4511 21.8819 10.7191 22.0001 11 22.0001C11.2809 22.0001 11.5489 21.8819 11.7383 21.6745C14.4031 18.7572 15.9175 14.9713 15.9998 11.0209C16.0001 11.0071 16.0001 10.9932 15.9998 10.9793C15.9175 7.02896 14.4031 3.24301 11.7383 0.325684L11 1.00011Z" fill="#D1D1D7"/>
<path d="M30.0001 14L32.5981 9.5H27.402L30.0001 14Z" fill="#D1D1D7"/>
</svg>
