<svg aria-hidden="true" style="position: absolute; width: 0; height: 0; overflow: hidden;" version="1.1" xmlns="http://www.w3.org/2000/svg" xmlns:xlink="http://www.w3.org/1999/xlink">
<defs>
<symbol id="icon-copyright" viewBox="0 0 32 32">
<path fill="#8f91d0" style="fill: var(--color1, #8f91d0)" d="M12.927 17.816c0.088 0.52 0.248 0.984 0.48 1.392s0.552 0.736 0.944 0.984c0.376 0.232 0.848 0.36 1.432 0.368 0.384-0.008 0.736-0.072 1.040-0.208 0.328-0.144 0.6-0.336 0.832-0.576s0.408-0.528 0.536-0.848c0.128-0.32 0.2-0.664 0.216-1.024h2.864c-0.024 0.752-0.176 1.44-0.44 2.064s-0.648 1.16-1.128 1.616c-0.48 0.456-1.056 0.8-1.728 1.048s-1.416 0.376-2.232 0.376c-1.040 0-1.944-0.176-2.712-0.536s-1.408-0.848-1.92-1.472c-0.512-0.624-0.896-1.344-1.144-2.168s-0.368-1.696-0.368-2.616v-0.44c0-0.928 0.128-1.8 0.376-2.624s0.632-1.544 1.144-2.16c0.512-0.616 1.152-1.104 1.928-1.464s1.68-0.536 2.72-0.536c0.752 0 1.456 0.12 2.112 0.368s1.232 0.584 1.728 1.016c0.496 0.432 0.896 0.928 1.184 1.504s0.456 1.184 0.48 1.84h-2.864c-0.016-0.336-0.096-0.64-0.24-0.928s-0.336-0.528-0.576-0.728c-0.24-0.2-0.52-0.36-0.84-0.472-0.304-0.104-0.624-0.16-0.968-0.16-0.576 0.016-1.048 0.136-1.432 0.376-0.4 0.256-0.72 0.584-0.952 0.992s-0.392 0.872-0.48 1.4c-0.088 0.528-0.12 1.040-0.12 1.576v0.44c0 0.544 0.040 1.080 0.128 1.6z"></path>
<path fill="#8f91d0" style="fill: var(--color1, #8f91d0)" d="M16 32c-8.84 0-16-7.16-16-16s7.16-16 16-16c8.84 0 16 7.16 16 16s-7.16 16-16 16zM16 3.2c-7.056 0-12.8 5.744-12.8 12.8s5.744 12.8 12.8 12.8c7.056 0 12.8-5.744 12.8-12.8s-5.744-12.8-12.8-12.8z"></path>
</symbol>
<symbol id="icon-facebook" viewBox="0 0 32 32">
<path fill="#acabbf" style="fill: var(--color2, #acabbf)" d="M21.33 5.313h2.921v-5.088c-0.504-0.069-2.237-0.225-4.256-0.225-4.212 0-7.097 2.649-7.097 7.519v4.481h-4.648v5.688h4.648v14.312h5.699v-14.311h4.46l0.708-5.688h-5.169v-3.919c0.001-1.644 0.444-2.769 2.735-2.769z"></path>
</symbol>
<symbol id="icon-instagram" viewBox="0 0 32 32">
<path fill="#acabbf" style="fill: var(--color2, #acabbf)" d="M22 0h-12c-5.522 0-10 4.478-10 10v12c0 5.522 4.478 10 10 10h12c5.522 0 10-4.478 10-10v-12c0-5.522-4.478-10-10-10zM29 22c0 3.86-3.14 7-7 7h-12c-3.86 0-7-3.14-7-7v-12c0-3.86 3.14-7 7-7h12c3.86 0 7 3.14 7 7v12z"></path>
<path fill="#acabbf" style="fill: var(--color2, #acabbf)" d="M16 8c-4.418 0-8 3.582-8 8s3.582 8 8 8 8-3.582 8-8c0-4.418-3.582-8-8-8zM16 21c-2.756 0-5-2.244-5-5 0-2.758 2.244-5 5-5s5 2.242 5 5c0 2.756-2.244 5-5 5z"></path>
<path fill="#acabbf" style="fill: var(--color2, #acabbf)" d="M24.6 8.466c0.589 0 1.066-0.477 1.066-1.066s-0.477-1.066-1.066-1.066c-0.589 0-1.066 0.477-1.066 1.066s0.477 1.066 1.066 1.066z"></path>
</symbol>
<symbol id="icon-twitter" viewBox="0 0 32 32">
<path fill="#acabbf" style="fill: var(--color2, #acabbf)" d="M10.425 28.014c11.321 0 17.512-9.379 17.512-17.512 0-0.266-0.005-0.532-0.017-0.796 1.202-0.869 2.246-1.953 3.070-3.187-1.103 0.49-2.29 0.82-3.535 0.969 1.271-0.762 2.246-1.968 2.706-3.405-1.189 0.705-2.506 1.217-3.908 1.494-1.123-1.196-2.722-1.945-4.493-1.945-3.399 0-6.155 2.756-6.155 6.154 0 0.483 0.054 0.953 0.16 1.403-5.116-0.257-9.652-2.706-12.687-6.431-0.528 0.909-0.833 1.966-0.833 3.094 0 2.135 1.087 4.021 2.739 5.123-1.010-0.031-1.958-0.308-2.788-0.77-0.001 0.026-0.001 0.051-0.001 0.079 0 2.981 2.122 5.47 4.938 6.034-0.517 0.141-1.062 0.217-1.623 0.217-0.396 0-0.782-0.039-1.157-0.111 0.784 2.446 3.056 4.225 5.75 4.275-2.107 1.651-4.761 2.635-7.645 2.635-0.496 0-0.986-0.028-1.468-0.085 2.724 1.746 5.959 2.765 9.435 2.765z"></path>
</symbol>
<symbol id="icon-dollar" viewBox="0 0 22 32">
<path fill="#f5453d" style="fill: var(--color3, #f5453d)" d="M10.451 31.851v-31.329h2.007v31.329h-2.007zM15.774 10.863c-0.098-0.987-0.518-1.754-1.261-2.301s-1.75-0.82-3.023-0.82c-0.865 0-1.595 0.122-2.191 0.367-0.596 0.237-1.052 0.567-1.371 0.991-0.31 0.424-0.465 0.906-0.465 1.444-0.016 0.449 0.077 0.84 0.281 1.175 0.212 0.335 0.502 0.624 0.869 0.869 0.367 0.237 0.791 0.445 1.273 0.624 0.481 0.171 0.995 0.318 1.542 0.441l2.252 0.538c1.093 0.245 2.097 0.571 3.011 0.979s1.705 0.91 2.374 1.505c0.669 0.596 1.187 1.297 1.554 2.105 0.375 0.808 0.567 1.734 0.575 2.778-0.008 1.534-0.4 2.864-1.175 3.989-0.767 1.118-1.876 1.987-3.329 2.607-1.444 0.612-3.186 0.918-5.226 0.918-2.023 0-3.786-0.31-5.287-0.93-1.493-0.62-2.66-1.538-3.5-2.753-0.832-1.224-1.269-2.737-1.309-4.54h5.128c0.057 0.84 0.298 1.542 0.722 2.105 0.432 0.555 1.008 0.975 1.726 1.26 0.726 0.277 1.546 0.416 2.46 0.416 0.897 0 1.677-0.131 2.337-0.392 0.669-0.261 1.187-0.624 1.554-1.089s0.551-0.999 0.551-1.603c0-0.563-0.167-1.036-0.502-1.42-0.326-0.383-0.808-0.71-1.444-0.979-0.628-0.269-1.399-0.514-2.313-0.734l-2.729-0.685c-2.113-0.514-3.781-1.318-5.005-2.411s-1.832-2.566-1.823-4.418c-0.008-1.518 0.396-2.843 1.212-3.977 0.824-1.134 1.954-2.019 3.39-2.656s3.068-0.955 4.895-0.955c1.86 0 3.484 0.318 4.871 0.955 1.395 0.636 2.48 1.522 3.255 2.656s1.175 2.448 1.199 3.941h-5.079z"></path>
</symbol>
<symbol id="icon-express" viewBox="0 0 32 32">
<path fill="#000" style="fill: var(--color4, #000)" d="M27.429 0.571c2.209 0 4 1.791 4 4v22.857c0 2.209-1.791 4-4 4h-22.857c-2.209 0-4-1.791-4-4v-22.857c0-2.209 1.791-4 4-4h22.857zM4.571 0c-2.525 0-4.571 2.047-4.571 4.571v22.857c0 2.525 2.047 4.571 4.571 4.571h22.857c2.525 0 4.571-2.047 4.571-4.571v-22.857c0-2.525-2.047-4.571-4.571-4.571h-22.857z"></path>
<path fill="#3ba7f5" style="fill: var(--color5, #3ba7f5)" d="M7.152 18.466c-0.090-0.090-0.146-0.214-0.146-0.352v-2.23c0-0.275 0.223-0.497 0.497-0.497s0.497 0.223 0.497 0.497v2.23c0 0.275-0.223 0.497-0.497 0.497-0.137 0-0.262-0.056-0.352-0.146z"></path>
<path fill="#3ba7f5" style="fill: var(--color5, #3ba7f5)" d="M9.577 18.466c-0.090-0.090-0.149-0.21-0.157-0.34l-0.124-2.106c-0.015-0.259 0.183-0.457 0.442-0.442s0.482 0.238 0.497 0.497l0.124 2.106c0.015 0.259-0.183 0.457-0.442 0.442-0.13-0.008-0.25-0.067-0.34-0.157z"></path>
<path fill="#259df4" style="fill: var(--color6, #259df4)" d="M10.415 15.867c0-0.265-0.215-0.481-0.481-0.481l-2.436-0c-0.128 0-0.25 0.051-0.34 0.141s-0.141 0.213-0.141 0.34l-0 1.656 3.398-0-0-1.656z"></path>
<path fill="#1b99f3" style="fill: var(--color7, #1b99f3)" d="M24.042 16.421c-0.004-0.438-0.106-0.87-0.297-1.263 0.185-0.39 0.28-0.82 0.276-1.258-0.013-1.603-1.329-2.918-2.931-2.931-1.191-0.010-2.39 0.596-3.563 1.802-0.369 0.38-0.675 0.758-0.896 1.052l-8.378-0.070c-0.703-0.006-1.27 0.561-1.264 1.264l0.007 0.804c0.001 0.125 0.004 0.471 0.004 0.471l9.651 0.081c0.227 0.3 0.54 0.684 0.915 1.070 1.194 1.224 2.403 1.852 3.594 1.862 1.603 0.013 2.896-1.28 2.883-2.883v0zM20.886 15.133c0.003 0.383 0.175 0.743 0.473 0.989 0.084 0.069 0.133 0.171 0.134 0.278 0.002 0.197-0.157 0.356-0.354 0.354-0.685-0.006-1.597-0.832-2.258-1.637 0.648-0.794 1.545-1.605 2.231-1.599 0.095 0.001 0.185 0.039 0.253 0.107s0.106 0.158 0.107 0.254c0.001 0.107-0.046 0.207-0.128 0.275-0.293 0.241-0.46 0.598-0.457 0.98z"></path>
<path fill="#3ba7f5" style="fill: var(--color5, #3ba7f5)" d="M21.347 16.193c0.083 0.068 0.131 0.169 0.131 0.274 0.001 0.195-0.157 0.353-0.352 0.352-0.679-0.003-1.578-0.817-2.229-1.611l-11.775-0.049 0.003 0.795c0 0.124 0.002 0.466 0.002 0.466l9.556 0.040c0.223 0.296 0.532 0.675 0.902 1.056 1.177 1.207 2.372 1.824 3.551 1.829 1.587 0.007 2.873-1.279 2.867-2.867-0.002-0.434-0.101-0.861-0.289-1.25l-2.831-0.012c0.002 0.379 0.171 0.735 0.464 0.976z"></path>
</symbol>
<symbol id="icon-free" viewBox="0 0 32 32">
<path fill="#000" style="fill: var(--color4, #000)" d="M27.429 0.571c2.209 0 4 1.791 4 4v22.857c0 2.209-1.791 4-4 4h-22.857c-2.209 0-4-1.791-4-4v-22.857c0-2.209 1.791-4 4-4h22.857zM4.571 0c-2.525 0-4.571 2.047-4.571 4.571v22.857c0 2.525 2.047 4.571 4.571 4.571h22.857c2.525 0 4.571-2.047 4.571-4.571v-22.857c0-2.525-2.047-4.571-4.571-4.571h-22.857z"></path>
<path fill="#3bf5bd" style="fill: var(--color8, #3bf5bd)" d="M23.052 16.4c1.372-1.164 2.058-1.746 1.876-2.295s-1.079-0.607-2.875-0.723l-2.16-0.139c-0.525-0.034-0.788-0.051-0.989-0.197s-0.298-0.39-0.493-0.879l-0.827-2.075c-0.674-1.691-1.011-2.537-1.592-2.537s-0.918 0.846-1.592 2.537l-0.827 2.075c-0.195 0.489-0.292 0.733-0.493 0.879s-0.463 0.163-0.989 0.197l-2.153 0.139c-1.792 0.116-2.688 0.174-2.87 0.722s0.502 1.13 1.869 2.294l1.684 1.434c0.396 0.337 0.594 0.506 0.668 0.739s0.010 0.486-0.118 0.99l-0.551 2.163c-0.451 1.768-0.676 2.652-0.206 2.994s1.242-0.146 2.784-1.122l1.877-1.188c0.446-0.282 0.668-0.423 0.917-0.423s0.471 0.141 0.917 0.423l1.877 1.188c1.542 0.976 2.313 1.464 2.784 1.122s0.245-1.226-0.206-2.994l-0.551-2.161c-0.129-0.505-0.193-0.757-0.118-0.991s0.273-0.402 0.67-0.739l1.687-1.432z"></path>
<path fill="#0cf3ad" style="fill: var(--color9, #0cf3ad)" d="M21.365 17.832c-0.397 0.337-0.596 0.505-0.67 0.739s-0.010 0.486 0.118 0.991l0.551 2.161c0.451 1.768 0.676 2.652 0.206 2.994s-1.242-0.146-2.784-1.122l-1.996-1.264c-0.39-0.247-0.585-0.37-0.691-0.563s-0.106-0.424-0.106-0.885v-7.993c0-1.767 0-2.651 0.213-2.893 0.259-0.295 0.684-0.376 1.034-0.198 0.288 0.146 0.615 0.967 1.269 2.609v0c0.101 0.253 0.152 0.38 0.231 0.479 0.097 0.121 0.224 0.214 0.37 0.268 0.119 0.044 0.255 0.053 0.527 0.071l2.418 0.156c1.796 0.116 2.693 0.174 2.875 0.723s-0.504 1.131-1.876 2.295l-1.687 1.432z"></path>
</symbol>
<symbol id="icon-premium" viewBox="0 0 32 32">
<path fill="#f79c6e" style="fill: var(--color10, #f79c6e)" d="M22.608 20.714h-13.215c-0.202 0-0.39-0.103-0.504-0.274-1.744-2.629-1.877-7.687-1.887-8.438-0.001-0.029-0.001-0.059-0.001-0.089 0-0.346 0.273-0.627 0.609-0.628h0.001c0.336 0 0.609 0.28 0.61 0.625 0 0.004 0 0.041 0.002 0.107 0.054 1.786 1.483 3.221 3.232 3.221 1.783 0 3.234-1.492 3.234-3.326 0-0.347 0.273-0.628 0.61-0.628h1.402c0.337 0 0.61 0.281 0.61 0.628 0 1.834 1.451 3.326 3.234 3.326 1.751 0 3.181-1.438 3.233-3.226 0.001-0.063 0.001-0.098 0.001-0.102 0.001-0.346 0.274-0.625 0.61-0.625h0.001c0.337 0.001 0.609 0.281 0.609 0.628 0 0.030-0 0.059-0.001 0.089-0.010 0.751-0.144 5.809-1.887 8.438-0.114 0.171-0.302 0.274-0.504 0.274z"></path>
<path fill="#f6844b" style="fill: var(--color11, #f6844b)" d="M24.391 11.286c-0 0-0.001 0-0.001 0-0.336 0-0.609 0.28-0.61 0.625 0 0.004-0 0.039-0.001 0.102-0.051 1.788-1.482 3.226-3.233 3.226-1.783 0-3.234-1.492-3.234-3.326 0-0.347-0.273-0.628-0.61-0.628h-0.701v9.429h6.607c0.202 0 0.39-0.103 0.504-0.274 1.744-2.629 1.877-7.688 1.887-8.438 0.001-0.029 0.001-0.059 0.001-0.089-0-0.346-0.273-0.627-0.609-0.628v0z"></path>
<path fill="#f6844b" style="fill: var(--color11, #f6844b)" d="M16 9.143c-1.182 0-2.143 0.961-2.143 2.143s0.961 2.143 2.143 2.143 2.143-0.961 2.143-2.143c0-1.182-0.961-2.143-2.143-2.143z"></path>
<path fill="#f47434" style="fill: var(--color12, #f47434)" d="M16 9.143v4.286c1.182-0 2.143-0.961 2.143-2.143s-0.961-2.143-2.143-2.143v0z"></path>
<path fill="#f6844b" style="fill: var(--color11, #f6844b)" d="M7.643 10.429c-1.063 0-1.929 0.961-1.929 2.143s0.865 2.143 1.929 2.143c1.064 0 1.929-0.961 1.929-2.143s-0.865-2.143-1.928-2.143z"></path>
<path fill="#f47434" style="fill: var(--color12, #f47434)" d="M24.357 10.429c-1.064 0-1.928 0.961-1.928 2.143s0.865 2.143 1.928 2.143c1.063 0 1.929-0.961 1.929-2.143s-0.865-2.143-1.929-2.143z"></path>
<path fill="#f6844b" style="fill: var(--color11, #f6844b)" d="M22.67 22.857h-13.339c-0.34 0-0.616-0.289-0.616-0.646v-1.926h14.571v1.926c0 0.357-0.276 0.646-0.616 0.646v0z"></path>
<path fill="#f47434" style="fill: var(--color12, #f47434)" d="M16 22.857h6.67c0.34 0 0.616-0.289 0.616-0.646v-1.926h-7.286v2.571z"></path>
<path fill="#000" style="fill: var(--color4, #000)" d="M27.429 0.571c2.209 0 4 1.791 4 4v22.857c0 2.209-1.791 4-4 4h-22.857c-2.209 0-4-1.791-4-4v-22.857c0-2.209 1.791-4 4-4h22.857zM4.571 0c-2.525 0-4.571 2.047-4.571 4.571v22.857c0 2.525 2.047 4.571 4.571 4.571h22.857c2.525 0 4.571-2.047 4.571-4.571v-22.857c0-2.525-2.047-4.571-4.571-4.571h-22.857z"></path>
</symbol>
<symbol id="icon-arrow-right" viewBox="0 0 64 32">
<path fill="#d1d1d7" style="fill: var(--color13, #d1d1d7)" d="M0.8 16c0-1.325 1.075-2.4 2.4-2.4h57.6c1.325 0 2.4 1.075 2.4 2.4s-1.075 2.4-2.4 2.4h-57.6c-1.325 0-2.4-1.075-2.4-2.4z"></path>
<path fill="#d1d1d7" style="fill: var(--color13, #d1d1d7)" d="M46.303 1.503c0.937-0.937 2.457-0.937 3.394 0l12.8 12.8c0.937 0.937 0.937 2.457 0 3.394l-12.8 12.8c-0.937 0.937-2.457 0.937-3.394 0s-0.937-2.457 0-3.394l11.103-11.103-11.103-11.103c-0.937-0.937-0.937-2.457 0-3.394z"></path>
</symbol>
<symbol id="icon-search" viewBox="0 0 32 32">
<path fill="#9a9ccb" style="fill: var(--color14, #9a9ccb)" d="M14.545 5.091c-5.222 0-9.455 4.233-9.455 9.455s4.233 9.455 9.455 9.455c5.222 0 9.455-4.233 9.455-9.455s-4.233-9.455-9.455-9.455zM0.727 14.545c0-7.632 6.187-13.818 13.818-13.818s13.818 6.187 13.818 13.818c0 7.632-6.187 13.818-13.818 13.818s-13.818-6.187-13.818-13.818z"></path>
<path fill="#9a9ccb" style="fill: var(--color14, #9a9ccb)" d="M21.221 21.221c0.852-0.852 2.233-0.852 3.086 0l6.327 6.327c0.852 0.852 0.852 2.234 0 3.086s-2.233 0.852-3.086 0l-6.327-6.327c-0.852-0.852-0.852-2.234 0-3.086z"></path>
</symbol>
<symbol id="icon-header-logo" viewBox="0 0 66 32">
<path fill="#f5443b" style="fill: var(--color15, #f5443b)" d="M60.375 22.962c0 0.924-1.425-0.924-2.375-0.924s-2.85 1.849-2.85 0.924c1.9-1.849 1.92-5.546 2.66-5.546s1.14 3.698 2.565 5.546z"></path>
<path fill="#000" style="fill: var(--color4, #000)" d="M10.888 19.417c0 0.655-0.153 1.219-0.46 1.693-0.293 0.46-0.78 0.885-1.463 1.275-0.46 0.279-0.996 0.488-1.609 0.627s-1.233 0.209-1.86 0.209c-0.641 0-1.435-0.209-2.382-0.627-0.683-0.334-1.226-0.731-1.63-1.191-0.39-0.46-0.585-0.961-0.585-1.505 0-0.376 0.084-0.648 0.251-0.815 0.167-0.181 0.439-0.272 0.815-0.272 0.195 0 0.397 0.084 0.606 0.251 0.209 0.153 0.334 0.306 0.376 0.46 0.195 0.571 0.536 1.010 1.024 1.317 0.488 0.293 1.094 0.439 1.818 0.439 0.836 0 1.533-0.153 2.090-0.46 0.571-0.307 0.857-0.718 0.857-1.233 0-0.502-0.307-0.947-0.92-1.338s-1.24-0.662-1.881-0.815c-0.92-0.251-1.735-0.55-2.445-0.899-0.738-0.362-1.289-0.808-1.651-1.338s-0.543-1.087-0.543-1.672c0-0.543 0.188-1.094 0.564-1.651 0.376-0.571 0.822-0.982 1.338-1.233 0.279-0.139 0.752-0.286 1.421-0.439 0.683-0.167 1.177-0.251 1.484-0.251 0.404 0 0.85 0.049 1.338 0.146s0.885 0.237 1.191 0.418c0.613 0.348 1.066 0.662 1.358 0.94s0.439 0.627 0.439 1.045c0 0.251-0.098 0.474-0.293 0.669-0.181 0.195-0.502 0.293-0.961 0.293-0.111 0-0.223-0.049-0.334-0.146s-0.251-0.244-0.418-0.439c-0.223-0.293-0.439-0.488-0.648-0.585-0.209-0.070-0.516-0.146-0.92-0.23-0.39-0.084-0.738-0.125-1.045-0.125-0.334 0-0.683 0.070-1.045 0.209s-0.669 0.341-0.92 0.606c-0.237 0.251-0.355 0.543-0.355 0.878 0 0.279 0.125 0.522 0.376 0.731 0.265 0.195 0.578 0.355 0.94 0.481 0.418 0.167 0.871 0.314 1.358 0.439 0.641 0.195 1.163 0.376 1.567 0.543 0.418 0.153 0.822 0.348 1.212 0.585 0.683 0.404 1.177 0.822 1.484 1.254 0.307 0.418 0.46 1.003 0.46 1.756zM13.909 9.783c0.488 0.042 0.913 0.174 1.275 0.397 0.362 0.209 0.543 0.529 0.543 0.961 0 0.32-0.153 0.578-0.46 0.773-0.293 0.181-0.648 0.272-1.066 0.272-0.404 0-0.683-0.104-0.836-0.314s-0.23-0.425-0.23-0.648c0-0.418 0.042-0.766 0.125-1.045 0.098-0.279 0.314-0.411 0.648-0.397zM15.581 19.041v0.606c0 0.543 0.014 1.059 0.042 1.547 0.042 0.474 0.091 0.954 0.146 1.442-0.014 0.139-0.118 0.286-0.314 0.439-0.195 0.139-0.369 0.209-0.522 0.209-0.265 0-0.536-0.049-0.815-0.146-0.265-0.111-0.425-0.244-0.481-0.397-0.084-0.446-0.125-0.843-0.125-1.191 0-1.142-0.035-2.424-0.104-3.845-0.056-1.254-0.084-2.132-0.084-2.633 0-0.251 0.125-0.467 0.376-0.648s0.516-0.272 0.794-0.272c0.404 0 0.683 0.091 0.836 0.272 0.167 0.181 0.251 0.467 0.251 0.857v3.762zM27.72 21.591c0.070 0.028 0.181 0.063 0.334 0.104s0.265 0.084 0.334 0.125c0.070 0.042 0.105 0.104 0.105 0.188 0.014 0.334-0.112 0.613-0.376 0.836-0.251 0.209-0.55 0.314-0.899 0.314-0.543 0-0.968-0.146-1.275-0.439s-0.53-0.738-0.669-1.338c-0.056-0.237-0.084-0.564-0.084-0.982 0-0.237 0.014-0.62 0.042-1.149 0.028-0.557 0.042-1.003 0.042-1.338 0-0.488-0.139-0.913-0.418-1.275-0.265-0.376-0.641-0.564-1.129-0.564-0.293 0-0.599 0.091-0.92 0.272-0.32 0.167-0.543 0.376-0.669 0.627-0.209 0.404-0.355 0.843-0.439 1.317-0.153 0.836-0.23 1.707-0.23 2.612 0 0.432 0.007 0.766 0.021 1.003 0 0.056 0 0.167 0 0.334 0.014 0.153 0 0.3-0.042 0.439-0.028 0.125-0.084 0.244-0.167 0.355-0.070 0.070-0.181 0.125-0.334 0.167-0.139 0.056-0.272 0.084-0.397 0.084-0.195 0-0.439-0.084-0.731-0.251s-0.46-0.355-0.502-0.564l-0.021-0.355c0-0.125 0.014-0.272 0.042-0.439 0.167-0.975 0.251-1.825 0.251-2.55 0-0.32-0.007-0.571-0.021-0.752l-0.021-0.982c0-0.334-0.084-0.655-0.251-0.961-0.167-0.32-0.362-0.481-0.585-0.481-0.070 0-0.167 0.028-0.293 0.084-0.125 0.042-0.23 0.063-0.314 0.063-0.139 0-0.293-0.070-0.46-0.209-0.153-0.139-0.23-0.286-0.23-0.439 0-0.293 0.098-0.529 0.293-0.711 0.209-0.167 0.411-0.3 0.606-0.397 0.209-0.098 0.446-0.146 0.711-0.146 0.223 0 0.404 0.021 0.543 0.063s0.327 0.132 0.564 0.272c0.125 0.070 0.272 0.223 0.439 0.46s0.307 0.571 0.418 1.003c0.362-0.669 0.808-1.136 1.338-1.4 0.543-0.279 1.233-0.418 2.069-0.418 0.32 0 0.662 0.104 1.024 0.313 0.376 0.209 0.697 0.453 0.961 0.732 0.251 0.306 0.46 0.69 0.627 1.149 0.167 0.446 0.251 0.85 0.251 1.212 0 0.209-0.014 0.55-0.042 1.024-0.042 0.376-0.063 0.773-0.063 1.191 0 0.975 0.188 1.574 0.564 1.797zM37.949 23.284c-0.474 0-0.836-0.070-1.087-0.209-0.251-0.153-0.522-0.432-0.815-0.836-0.362 0.32-0.906 0.578-1.63 0.773-0.711 0.195-1.324 0.293-1.839 0.293-0.85 0-1.54-0.23-2.069-0.69-0.516-0.474-0.773-1.163-0.773-2.069 0-0.39 0.104-0.745 0.314-1.066 0.223-0.334 0.508-0.627 0.857-0.878 0.39-0.265 0.85-0.474 1.379-0.627 0.543-0.153 1.038-0.23 1.484-0.23 0.752 0 1.421 0.070 2.006 0.209v-0.021c0-0.752-0.188-1.268-0.564-1.547-0.362-0.293-0.947-0.439-1.756-0.439-0.516 0-0.961 0.23-1.338 0.69-0.139 0.181-0.432 0.272-0.878 0.272-0.223 0-0.39-0.091-0.502-0.272-0.098-0.195-0.146-0.39-0.146-0.585 0-0.404 0.167-0.752 0.502-1.045 0.348-0.293 0.766-0.508 1.254-0.648 0.488-0.153 0.94-0.23 1.358-0.23 0.404 0 0.885 0.084 1.442 0.251s1.010 0.39 1.358 0.669c0.418 0.362 0.738 0.787 0.961 1.275 0.237 0.474 0.355 0.996 0.355 1.567 0 0.181-0.014 0.453-0.042 0.815-0.028 0.418-0.042 0.759-0.042 1.024 0 0.125-0.014 0.286-0.042 0.481-0.028 0.251-0.042 0.46-0.042 0.627 0 0.181 0.056 0.355 0.167 0.522s0.265 0.306 0.46 0.418c0.181 0.098 0.3 0.202 0.355 0.313s0.084 0.237 0.084 0.376c0 0.139-0.091 0.313-0.272 0.522-0.167 0.195-0.334 0.293-0.502 0.293zM33.769 19.292c-0.543 0-1.024 0.105-1.442 0.314s-0.627 0.578-0.627 1.108c0 0.265 0.091 0.488 0.272 0.669 0.195 0.181 0.404 0.272 0.627 0.272 0.599 0 1.101-0.063 1.505-0.188s0.892-0.355 1.463-0.69c0.070-0.223 0.111-0.536 0.125-0.94 0-0.153 0.007-0.272 0.021-0.355-0.752-0.125-1.4-0.188-1.944-0.188zM40.064 16.157c-0.111 0-0.209-0.042-0.293-0.125-0.084-0.098-0.125-0.209-0.125-0.334 0-0.404 0.132-0.711 0.397-0.92 0.265-0.223 0.592-0.334 0.982-0.334 0.543 0 1.010 0.146 1.4 0.439 0.404 0.279 0.606 0.683 0.606 1.212 0 0.139-0.028 0.669-0.084 1.588-0.056 1.059-0.084 1.762-0.084 2.111 0 0.488 0.091 0.885 0.272 1.191 0.195 0.293 0.495 0.439 0.899 0.439 0.78 0 1.379-0.432 1.797-1.296 0.432-0.878 0.718-1.951 0.857-3.218 0.056-0.557 0.139-1.142 0.251-1.756 0.056-0.334 0.132-0.578 0.23-0.731s0.286-0.23 0.564-0.23c0.181 0 0.39 0.042 0.627 0.125 0.251 0.084 0.411 0.195 0.481 0.334 0.084 0.209 0.125 0.439 0.125 0.69 0 0.348-0.049 0.801-0.146 1.358-0.111 0.557-0.188 1.163-0.23 1.818-0.028 0.585 0.063 1.198 0.272 1.839s0.508 1.059 0.899 1.254c0.446 0.223 0.669 0.425 0.669 0.606 0 0.293-0.105 0.522-0.314 0.69s-0.411 0.251-0.606 0.251c-0.516 0-0.982-0.188-1.4-0.564-0.404-0.376-0.697-0.843-0.878-1.4-0.293 0.446-0.578 0.815-0.857 1.108-0.265 0.279-0.606 0.516-1.024 0.711-0.418 0.181-0.933 0.272-1.546 0.272-0.724 0-1.386-0.258-1.985-0.773-0.585-0.516-0.878-1.4-0.878-2.654 0-0.348 0.007-0.718 0.021-1.108 0.028-0.39 0.042-0.669 0.042-0.836 0.042-0.502 0.063-0.961 0.063-1.379 0-0.125-0.049-0.23-0.146-0.314-0.084-0.084-0.181-0.125-0.293-0.125-0.084 0-0.181 0.014-0.293 0.042-0.098 0.014-0.188 0.021-0.272 0.021zM61.562 18.226c0.084-0.306 0.174-0.724 0.272-1.254 0.139-0.627 0.251-1.101 0.334-1.421s0.195-0.592 0.334-0.815c0.153-0.251 0.286-0.418 0.397-0.502 0.125-0.084 0.258-0.125 0.397-0.125 0.724 0 1.087 0.279 1.087 0.836 0 0.279-0.111 0.801-0.334 1.567-0.738 2.229-1.268 3.957-1.588 5.183-0.139 0.516-0.348 0.913-0.627 1.191-0.279 0.265-0.655 0.397-1.129 0.397-0.237 0-0.481-0.111-0.731-0.334-0.237-0.237-0.432-0.522-0.585-0.857l-0.23-0.564c-0.39-0.989-0.683-1.749-0.878-2.278-0.181-0.543-0.3-1.031-0.355-1.463l-0.188 0.669c-0.334 1.198-0.683 2.313-1.045 3.344-0.181 0.529-0.404 0.913-0.669 1.149-0.265 0.223-0.606 0.334-1.024 0.334-0.251 0-0.474-0.056-0.669-0.167-0.181-0.111-0.355-0.3-0.522-0.564-0.223-0.362-0.439-0.85-0.648-1.463-0.195-0.613-0.481-1.567-0.857-2.863-0.181-0.557-0.348-1.142-0.502-1.756-0.153-0.627-0.23-1.066-0.23-1.317 0-0.293 0.077-0.522 0.23-0.69s0.376-0.251 0.669-0.251c0.376 0 0.641 0.077 0.794 0.23 0.153 0.139 0.293 0.355 0.418 0.648 0.070 0.502 0.223 1.212 0.46 2.132l0.46 1.964c0.028 0.153 0.111 0.474 0.251 0.961l0.167 0.606c0.307-0.655 0.564-1.282 0.773-1.881s0.439-1.338 0.69-2.215c0.014-0.056 0.153-0.536 0.418-1.442 0.181-0.293 0.341-0.509 0.481-0.648 0.139-0.153 0.279-0.23 0.418-0.23 0.279 0 0.516 0.091 0.711 0.272 0.209 0.167 0.362 0.376 0.46 0.627 0.167 0.543 0.313 1.038 0.439 1.484 0.056 0.181 0.181 0.62 0.376 1.317 0.209 0.683 0.397 1.261 0.564 1.735s0.307 0.808 0.418 1.003l0.794-2.55z"></path>
<path fill="#f5443b" style="fill: var(--color15, #f5443b)" d="M16.255 11.030c0 0.962-0.78 1.451-1.742 1.451s-1.451-0.489-1.451-1.451c0-0.962 0.49-1.451 1.451-1.451s1.742 0.489 1.742 1.451z"></path>
</symbol>
<symbol id="icon-switch-languages" viewBox="0 0 48 32">
<path fill="#d1d1d7" style="fill: var(--color13, #d1d1d7)" d="M16 2.909c-7.23 0-13.091 5.861-13.091 13.091s5.861 13.091 13.091 13.091c7.23 0 13.091-5.861 13.091-13.091s-5.861-13.091-13.091-13.091zM0 16c0-8.837 7.163-16 16-16s16 7.163 16 16c0 8.837-7.163 16-16 16s-16-7.163-16-16z"></path>
<path fill="#d1d1d7" style="fill: var(--color13, #d1d1d7)" d="M0 16c0-0.803 0.651-1.455 1.455-1.455h29.091c0.803 0 1.455 0.651 1.455 1.455s-0.651 1.455-1.455 1.455h-29.091c-0.803 0-1.455-0.651-1.455-1.455z"></path>
<path fill="#d1d1d7" style="fill: var(--color13, #d1d1d7)" d="M11.637 16c0.1-4.472 1.638-8.778 4.363-12.29 2.725 3.511 4.264 7.817 4.363 12.29-0.1 4.472-1.638 8.778-4.363 12.29-2.725-3.511-4.264-7.817-4.363-12.29zM16 1.455l-1.074-0.981c-3.876 4.243-6.079 9.75-6.199 15.496-0 0.020-0 0.040 0 0.061 0.12 5.746 2.322 11.253 6.199 15.496 0.275 0.302 0.665 0.474 1.074 0.474s0.798-0.172 1.074-0.474c3.876-4.243 6.079-9.75 6.199-15.496 0-0.020 0-0.040 0-0.060-0.12-5.746-2.322-11.253-6.199-15.496l-1.074 0.981z"></path>
<path fill="#d1d1d7" style="fill: var(--color13, #d1d1d7)" d="M43.636 20.364l3.779-6.545h-7.558l3.779 6.545z"></path>
</symbol>
</defs>
</svg>
